HIERARCHY
ROOT Hips
{
    OFFSET   0.000000   0.000000   0.000000
    CHANNELS 6 Xposition Yposition Zposition Zrotation Xrotation Yrotation
    JOINT Chest
    {
        OFFSET   0.000000   8.007230   0.000000
        CHANNELS 3 Zrotation Xrotation Yrotation
        JOINT Chest2
        {
            OFFSET   0.000000  22.077100   0.000000
            CHANNELS 3 Zrotation Xrotation Yrotation
            JOINT Neck
            {
                OFFSET   0.000000  23.254800  -0.000021
                CHANNELS 3 Zrotation Xrotation Yrotation
                JOINT Head
                {
                    OFFSET   0.000000  14.370000   1.956610
                    CHANNELS 3 Zrotation Xrotation Yrotation
                    End Site
                    {
                        OFFSET   0.000000  19.566000   0.000000
                    }
                }
            }
            JOINT LeftCollar
            {
                OFFSET   3.911900  19.017000  -0.467063
                CHANNELS 3 Zrotation Xrotation Yrotation
                JOINT LeftShoulder
                {
                    OFFSET  10.383700   0.000000   0.000000
                    CHANNELS 3 Zrotation Xrotation Yrotation
                    JOINT LeftElbow
                    {
                        OFFSET  26.662100   0.001529   0.000325
                        CHANNELS 3 Zrotation Xrotation Yrotation
                        JOINT LeftWrist
                        {
                            OFFSET  28.869000  -0.000011  -0.000096
                            CHANNELS 3 Zrotation Xrotation Yrotation
                            JOINT LeftFinger0
                            {
                                OFFSET   2.044650  -2.323460   3.252850
                                CHANNELS 3 Zrotation Xrotation Yrotation
                                JOINT LeftFinger01
                                {
                                    OFFSET   3.088130   0.000000   0.000000
                                    CHANNELS 3 Zrotation Xrotation Yrotation
                                    JOINT LeftFinger02
                                    {
                                        OFFSET   2.639460   0.000000   0.000000
                                        CHANNELS 3 Zrotation Xrotation Yrotation
                                        End Site
                                        {
                                            OFFSET   2.582190   0.000000   0.000000
                                        }
                                    }
                                }
                            }
                            JOINT LeftFinger1
                            {
                                OFFSET   8.364480   0.000000   3.252850
                                CHANNELS 3 Zrotation Xrotation Yrotation
                                JOINT LeftFinger11
                                {
                                    OFFSET   4.646930   0.000000   0.000000
                                    CHANNELS 3 Zrotation Xrotation Yrotation
                                    JOINT LeftFinger12
                                    {
                                        OFFSET   2.323460   0.000000   0.000000
                                        CHANNELS 3 Zrotation Xrotation Yrotation
                                        End Site
                                        {
                                            OFFSET   2.273050   0.000000   0.000000
                                        }
                                    }
                                }
                            }
                            JOINT LeftFinger2
                            {
                                OFFSET   8.364480   0.000016   1.078090
                                CHANNELS 3 Zrotation Xrotation Yrotation
                                JOINT LeftFinger21
                                {
                                    OFFSET   5.111620   0.000000   0.000000
                                    CHANNELS 3 Zrotation Xrotation Yrotation
                                    JOINT LeftFinger22
                                    {
                                        OFFSET   2.788160   0.000017   0.000000
                                        CHANNELS 3 Zrotation Xrotation Yrotation
                                        End Site
                                        {
                                            OFFSET   2.727660   0.000000   0.000000
                                        }
                                    }
                                }
                            }
                            JOINT LeftFinger3
                            {
                                OFFSET   7.899780   0.000015  -1.078090
                                CHANNELS 3 Zrotation Xrotation Yrotation
                                JOINT LeftFinger31
                                {
                                    OFFSET   4.646920   0.000000   0.000000
                                    CHANNELS 3 Zrotation Xrotation Yrotation
                                    JOINT LeftFinger32
                                    {
                                        OFFSET   2.323470   0.000000   0.000000
                                        CHANNELS 3 Zrotation Xrotation Yrotation
                                        End Site
                                        {
                                            OFFSET   2.273050   0.000000   0.000000
                                        }
                                    }
                                }
                            }
                            JOINT LeftFinger4
                            {
                                OFFSET   7.435090   0.000000  -3.252850
                                CHANNELS 3 Zrotation Xrotation Yrotation
                                JOINT LeftFinger41
                                {
                                    OFFSET   3.717550   0.000000   0.000000
                                    CHANNELS 3 Zrotation Xrotation Yrotation
                                    JOINT LeftFinger42
                                    {
                                        OFFSET   1.858760   0.000000   0.000000
                                        CHANNELS 3 Zrotation Xrotation Yrotation
                                        End Site
                                        {
                                            OFFSET   1.818440   0.000000   0.000000
                                        }
                                    }
                                }
                            }
                        }
                    }
                }
            }
            JOINT RightCollar
            {
                OFFSET  -3.911900  19.017000  -0.467062
                CHANNELS 3 Zrotation Xrotation Yrotation
                JOINT RightShoulder
                {
                    OFFSET -10.383700   0.000015   0.000000
                    CHANNELS 3 Zrotation Xrotation Yrotation
                    JOINT RightElbow
                    {
                        OFFSET -26.662100   0.001341   0.000385
                        CHANNELS 3 Zrotation Xrotation Yrotation
                        JOINT RightWrist
                        {
                            OFFSET -28.869000   0.000025  -0.000080
                            CHANNELS 3 Zrotation Xrotation Yrotation
                            JOINT RightFinger0
                            {
                                OFFSET  -2.044650  -2.323490   3.252850
                                CHANNELS 3 Zrotation Xrotation Yrotation
                                JOINT RightFinger01
                                {
                                    OFFSET  -3.088130   0.000000   0.000000
                                    CHANNELS 3 Zrotation Xrotation Yrotation
                                    JOINT RightFinger02
                                    {
                                        OFFSET  -2.639460   0.000000   0.000000
                                        CHANNELS 3 Zrotation Xrotation Yrotation
                                        End Site
                                        {
                                            OFFSET  -2.582190   0.000000   0.000000
                                        }
                                    }
                                }
                            }
                            JOINT RightFinger1
                            {
                                OFFSET  -8.364480   0.000000   3.252850
                                CHANNELS 3 Zrotation Xrotation Yrotation
                                JOINT RightFinger11
                                {
                                    OFFSET  -4.646930   0.000000   0.000000
                                    CHANNELS 3 Zrotation Xrotation Yrotation
                                    JOINT RightFinger12
                                    {
                                        OFFSET  -2.323470   0.000000   0.000000
                                        CHANNELS 3 Zrotation Xrotation Yrotation
                                        End Site
                                        {
                                            OFFSET  -2.273050   0.000000   0.000000
                                        }
                                    }
                                }
                            }
                            JOINT RightFinger2
                            {
                                OFFSET  -8.364480   0.000000   1.078090
                                CHANNELS 3 Zrotation Xrotation Yrotation
                                JOINT RightFinger21
                                {
                                    OFFSET  -5.111610   0.000000   0.000000
                                    CHANNELS 3 Zrotation Xrotation Yrotation
                                    JOINT RightFinger22
                                    {
                                        OFFSET  -2.788160   0.000000   0.000000
                                        CHANNELS 3 Zrotation Xrotation Yrotation
                                        End Site
                                        {
                                            OFFSET  -2.727660   0.000000   0.000000
                                        }
                                    }
                                }
                            }
                            JOINT RightFinger3
                            {
                                OFFSET  -7.899780   0.000000  -1.078090
                                CHANNELS 3 Zrotation Xrotation Yrotation
                                JOINT RightFinger31
                                {
                                    OFFSET  -4.646920   0.000000   0.000000
                                    CHANNELS 3 Zrotation Xrotation Yrotation
                                    JOINT RightFinger32
                                    {
                                        OFFSET  -2.323470   0.000000   0.000000
                                        CHANNELS 3 Zrotation Xrotation Yrotation
                                        End Site
                                        {
                                            OFFSET  -2.273050   0.000000   0.000000
                                        }
                                    }
                                }
                            }
                            JOINT RightFinger4
                            {
                                OFFSET  -7.435090   0.000000  -3.252850
                                CHANNELS 3 Zrotation Xrotation Yrotation
                                JOINT RightFinger41
                                {
                                    OFFSET  -3.717550   0.000000   0.000000
                                    CHANNELS 3 Zrotation Xrotation Yrotation
                                    JOINT RightFinger42
                                    {
                                        OFFSET  -1.858770   0.000000   0.000000
                                        CHANNELS 3 Zrotation Xrotation Yrotation
                                        End Site
                                        {
                                            OFFSET  -1.818440   0.000000   0.000000
                                        }
                                    }
                                }
                            }
                        }
                    }
                }
            }
        }
    }
    JOINT LeftHip
    {
        OFFSET   9.783010   0.000000   0.000000
        CHANNELS 3 Zrotation Xrotation Yrotation
        JOINT LeftKnee
        {
            OFFSET   0.000070 -41.789100   0.000028
            CHANNELS 3 Zrotation Xrotation Yrotation
            JOINT LeftAnkle
            {
                OFFSET   0.000087 -41.133200  -0.000100
                CHANNELS 3 Zrotation Xrotation Yrotation
                JOINT LeftToe
                {
                    OFFSET   0.000000  -6.358960  14.674500
                    CHANNELS 3 Zrotation Xrotation Yrotation
                    End Site
                    {
                        OFFSET   0.000000   0.000000   3.913200
                    }
                }
            }
        }
    }
    JOINT RightHip
    {
        OFFSET  -9.783020   0.000000   0.000000
        CHANNELS 3 Zrotation Xrotation Yrotation
        JOINT RightKnee
        {
            OFFSET   0.000044 -41.789100  -0.000870
            CHANNELS 3 Zrotation Xrotation Yrotation
            JOINT RightAnkle
            {
                OFFSET  -0.000090 -41.133200  -0.000245
                CHANNELS 3 Zrotation Xrotation Yrotation
                JOINT RightToe
                {
                    OFFSET   0.000000  -6.358960  14.674500
                    CHANNELS 3 Zrotation Xrotation Yrotation
                    End Site
                    {
                        OFFSET   0.000000   0.000000   3.913200
                    }
                }
            }
        }
    }
}
MOTION
Frames: 6
Frame Time:   0.016667
  0.349679  90.096800  -0.019289  -0.955800  -1.108520  -2.182790   0.138142   2.016600   0.393540   0.262654   4.034140   0.782945  -0.065507  -0.458886  -0.003638  -0.109238  -0.930739   4.204170  -4.920690  -1.816890   2.348170 -73.269900  19.882000  -0.964131  -2.905380  -5.565850 -15.821000  14.415400   3.158310   9.016510  42.174900  32.748900 -68.853400 -24.483000  -0.003365   0.007590  -7.245370  -0.004362   0.003316 -30.898900   7.845740 -12.836600 -26.004600  -0.009989  -0.001606 -18.203200  -0.003426   0.003775 -28.627000   3.062910  -5.593080 -41.369900  -0.000481  -0.003333 -27.552300  -0.009736  -0.003737 -27.531300   2.955260  -5.650620 -30.129300  -0.008209  -0.007745 -20.066100  -0.001592  -0.007141 -29.221400   1.382620  -2.458050 -43.877000  -0.009806  -0.008245 -29.222100   0.005189  -0.005887   8.130310   0.584378   2.337770  72.199900   9.187810  -0.130337   1.581280  -2.912370  14.909400 -17.690500 -13.091400   5.245830 -37.643100  34.644400  70.816700  32.588400   0.004353  -0.007032  11.299500   0.013957  -0.006114  32.538400   1.234200   1.933440  26.639400  -0.004380   0.002040  18.654000  -0.004853   0.005151  28.143300  -1.684940  -3.146590  33.307800  -0.000837   0.002399  22.183000   0.001208   0.001664  28.544500  -2.247640  -4.104490  37.801800  -0.000465   0.001850  25.191600  -0.003440   0.001191  40.581400  -3.043350  -3.548740  60.991000   0.004871  -0.001530  40.634400  -0.000867  -0.000546   0.750910   3.112080   1.793350   0.577707   0.263764  14.244100  -5.600850  -3.911440   7.335240   0.000000   0.000000  -0.000000   1.005790   3.406910  -9.019840  -0.204508   0.852493  -8.185640  -9.136250   0.797149   2.314260   0.000000   0.000000   0.000000
  0.345432  90.096700  -0.033482  -0.956150  -1.119700  -2.177140   0.137989   2.023850   0.393584   0.262321   4.048620   0.783023  -0.066115  -0.477983  -0.003627  -0.109503  -0.969455   4.219780  -4.921290  -1.816880   2.352050 -73.272600  19.885800  -0.956320  -2.909650  -5.570730 -15.816600  14.414900   3.161120   9.016540  42.169800  32.753200 -68.860000 -24.485100  -0.003353   0.007582  -7.245370  -0.004362   0.003317 -30.913000   7.845110 -12.834900 -26.015300  -0.009987  -0.001592 -18.210700  -0.003423   0.003784 -28.627500   3.060860  -5.588010 -41.359200  -0.000464  -0.003332 -27.545200  -0.009737  -0.003735 -27.531800   2.953180  -5.645560 -30.122900  -0.008200  -0.007733 -20.061800  -0.001592  -0.007135 -29.218200   1.382580  -2.458050 -43.872100  -0.009808  -0.008238 -29.218900   0.005187  -0.005882   8.130270   0.584204   2.337410  72.199600   9.198010  -0.130360   1.583560  -2.922840  14.909500 -17.687700 -13.091300   5.246590 -37.636700  34.646200  70.820100  32.591800   0.004352  -0.007011  11.299500   0.013979  -0.006101  32.543300   1.233130   1.931440  26.643500  -0.004352   0.002014  18.654000  -0.004848   0.005120  28.143100  -1.686410  -3.149210  33.315600  -0.000825   0.002379  22.188200   0.001203   0.001648  28.544400  -2.247560  -4.106050  37.806600  -0.000456   0.001834  25.192000  -0.003439   0.001180  40.581600  -3.044710  -3.549950  60.995400   0.004878  -0.001556  40.634800  -0.000883  -0.000553   0.750639   3.117250   1.793120   0.585645   0.256661  14.262300  -5.603050  -3.898800   7.309310  -0.000000   0.000000  -0.000000   1.005750   3.417650  -9.020150  -0.202625   0.843683  -8.195610  -9.139340   0.797158   2.321260   0.000000   0.000000  -0.000000
  0.338358  90.096600  -0.057931  -0.956755  -1.138490  -2.167940   0.137799   2.036240   0.393666   0.261843   4.073390   0.783169  -0.070242  -0.512413  -0.003602  -0.115352  -1.039200   4.251910  -4.924000  -1.816860   2.360760 -73.275200  19.893400  -0.948532  -2.917520  -5.579670 -15.807300  14.413500   3.169880   9.016620  42.164700  32.757500 -68.866700 -24.490700  -0.003328   0.007570  -7.245370  -0.004362   0.003318 -30.928100   7.842680 -12.829900 -26.027400  -0.009981  -0.001559 -18.219200  -0.003415   0.003808 -28.628400   3.056800  -5.578910 -41.339100  -0.000425  -0.003329 -27.531800  -0.009741  -0.003732 -27.532700   2.949070  -5.636470 -30.110400  -0.008174  -0.007705 -20.053500  -0.001590  -0.007113 -29.210700   1.382520  -2.458050 -43.860800  -0.009815  -0.008218 -29.211300   0.005179  -0.005868   8.130230   0.584030   2.337060  72.199100   9.215040  -0.130386   1.587610  -2.939980  14.909800 -17.680000 -13.091300   5.250000 -37.630300  34.648000  70.823500  32.598500   0.004341  -0.006960  11.299600   0.014028  -0.006069  32.551400   1.230150   1.926270  26.649900  -0.004289   0.001945  18.654000  -0.004832   0.005043  28.142800  -1.689790  -3.155370  33.326500  -0.000795   0.002329  22.195500   0.001192   0.001609  28.544300  -2.247470  -4.109950  37.813700  -0.000434   0.001793  25.192400  -0.003435   0.001150  40.581700  -3.047870  -3.553120  61.001900   0.004896  -0.001619  40.635200  -0.000922  -0.000573   0.749999   3.134330   1.792830   0.597185   0.235172  14.295000  -5.605630  -3.875580   7.265130  -0.000000   0.000000   0.000000   1.005700   3.428400  -9.020450  -0.200628   0.834856  -8.213530  -9.145250   0.797239   2.331820   0.000000   0.000000  -0.000000
  0.332615  90.097100  -0.079300  -0.957296  -1.153800  -2.161060   0.137748   2.046810   0.393775   0.261608   4.094510   0.783360  -0.079126  -0.545819  -0.003570  -0.129866  -1.106670   4.289630  -4.930240  -1.816830   2.373130 -73.274500  19.902700  -0.950701  -2.925900  -5.588330 -15.795800  14.414500   3.187440   9.019780  42.158800  32.754500 -68.864000 -24.500100  -0.003297   0.007566  -7.249350  -0.004339   0.003317 -30.930700   7.836040 -12.820400 -26.028300  -0.009975  -0.001509 -18.219800  -0.003403   0.003847 -28.629400   3.051740  -5.569610 -41.317100  -0.000374  -0.003320 -27.517200  -0.009750  -0.003727 -27.531100   2.943950  -5.627190 -30.094900  -0.008135  -0.007667 -20.043200  -0.001586  -0.007073 -29.199500   1.382460  -2.461540 -43.844100  -0.009827  -0.008182 -29.200100   0.005165  -0.005842   8.130280   0.585227   2.339570  72.198800   9.230080  -0.129122   1.594700  -2.953220  14.905300 -17.667100 -13.090300   5.257310 -37.621700  34.644800  70.818000  32.608300   0.004310  -0.006888  11.299600   0.014092  -0.006022  32.558700   1.224400   1.917110  26.654900  -0.004201   0.001832  18.654100  -0.004796   0.004930  28.142200  -1.695110  -3.166890  33.331400  -0.000748   0.002256  22.198800   0.001174   0.001550  28.544000  -2.247460  -4.117350  37.818000  -0.000401   0.001730  25.190000  -0.003429   0.001104  40.579200  -3.052880  -3.558680  61.005500   0.004923  -0.001715  40.633300  -0.000983  -0.000604   0.749203   3.176830   1.792810   0.604636   0.184741  14.328400  -5.604400  -3.845780   7.226920   0.000000   0.000000  -0.000000   1.008790   3.425780  -9.013430  -0.200909   0.843137  -8.235330  -9.152030   0.800805   2.338370   0.000000   0.000000  -0.000000
  0.327066  90.097900  -0.101339  -0.957847  -1.169350  -2.154430   0.137845   2.057740   0.393847   0.261771   4.116390   0.783493  -0.093667  -0.581549  -0.003531  -0.153898  -1.178950   4.336410  -4.937660  -1.816780   2.386740 -73.273700  19.913800  -0.952882  -2.934110  -5.598250 -15.781100  14.418100   3.205770   9.025960  42.145500  32.746200 -68.858100 -24.510600  -0.003257   0.007561  -7.255300  -0.004298   0.003317 -30.933100   7.831350 -12.809700 -26.029300  -0.009966  -0.001446 -18.220500  -0.003389   0.003897 -28.630400   3.046810  -5.560810 -41.294000  -0.000310  -0.003306 -27.501800  -0.009761  -0.003721 -27.528400   2.938970  -5.618420 -30.080300  -0.008082  -0.007618 -20.033500  -0.001581  -0.007021 -29.187000   1.382410  -2.467220 -43.825300  -0.009844  -0.008135 -29.187600   0.005147  -0.005807   8.130450   0.587403   2.344190  72.198500   9.242510  -0.127858   1.604020  -2.965880  14.898800 -17.651800 -13.087000   5.266900 -37.611500  34.638700  70.808500  32.614800   0.004272  -0.006802  11.299700   0.014170  -0.005964  32.563000   1.218870   1.908090  26.657600  -0.004093   0.001693  18.654100  -0.004751   0.004791  28.141800  -1.700280  -3.174870  33.333100  -0.000688   0.002167  22.199900   0.001150   0.001478  28.543800  -2.247590  -4.123120  37.820000  -0.000362   0.001652  25.186700  -0.003421   0.001047  40.575400  -3.057850  -3.564360  61.007100   0.004957  -0.001833  40.630000  -0.001057  -0.000643   0.749391   3.207410   1.792850   0.608470   0.148693  14.360400  -5.603940  -3.826710   7.189250  -0.000000   0.000000   0.000000   1.013890   3.421350  -9.006400  -0.201602   0.857445  -8.249200  -9.159140   0.806663   2.342730   0.000000   0.000000  -0.000000
  0.322103  90.098500  -0.123547  -0.958380  -1.185060  -2.148060   0.139452   2.068920   0.393826   0.264946   4.138770   0.783436  -0.115211  -0.617470  -0.003467  -0.189379  -1.252080   4.394270  -4.944290  -1.816550   2.398460 -73.273800  19.925700  -0.952001  -2.939350  -5.608730 -15.762300  14.423500   3.216120   9.035020  42.123200  32.729400 -68.846900 -24.521500  -0.003203   0.007548  -7.258710  -0.004263   0.003323 -30.941600   7.832370 -12.798700 -26.036500  -0.009952  -0.001375 -18.225600  -0.003373   0.003955 -28.631200   3.043310  -5.553970 -41.275000  -0.000236  -0.003286 -27.489200  -0.009772  -0.003713 -27.527700   2.935470  -5.611570 -30.075200  -0.008014  -0.007556 -20.030100  -0.001578  -0.006964 -29.177000   1.382470  -2.471090 -43.810300  -0.009861  -0.008081 -29.177700   0.005126  -0.005766   8.130820   0.589584   2.349180  72.202300   9.247100  -0.129935   1.612260  -2.977590  14.895400 -17.635500 -13.078400   5.277430 -37.613900  34.631100  70.797900  32.609500   0.004244  -0.006706  11.299800   0.014263  -0.005901  32.563200   1.217090   1.904010  26.656800  -0.003969   0.001542  18.654100  -0.004705   0.004637  28.141700  -1.702580  -3.173840  33.323300  -0.000618   0.002067  22.195400   0.001119   0.001398  28.543700  -2.248720  -4.123590  37.814300  -0.000322   0.001565  25.185000  -0.003411   0.000984  40.571800  -3.060270  -3.567410  61.002200   0.004998  -0.001966  40.626500  -0.001137  -0.000685   0.751663   3.181000   1.795320   0.614365   0.196083  14.382200  -5.609860  -3.830860   7.154320   0.000000   0.000000  -0.000000   1.018860   3.416690  -9.014110  -0.202182   0.871089  -8.245050  -9.164840   0.811265   2.344130  -0.000000   0.000000   0.000000
